<svg xmlns="http://www.w3.org/2000/svg" width="64" height="64" viewBox="0 0 64 64">
  <defs>
    <linearGradient id="lit" gradientUnits="userSpaceOnUse" x1="12" y1="10" x2="54" y2="56">
      <stop offset="0" stop-color="#5fdcf0"/>
      <stop offset="0.55" stop-color="#19c2db"/>
      <stop offset="1" stop-color="#7c7cf0"/>
    </linearGradient>
    <radialGradient id="glow" cx="0.5" cy="0.5" r="0.5">
      <stop offset="0" stop-color="#19c2db" stop-opacity="0.55"/>
      <stop offset="1" stop-color="#19c2db" stop-opacity="0"/>
    </radialGradient>
    <radialGradient id="core" cx="0.5" cy="0.5" r="0.5">
      <stop offset="0" stop-color="#9af0ff"/>
      <stop offset="1" stop-color="#19c2db"/>
    </radialGradient>
  </defs>

  <rect x="1" y="1" width="62" height="62" rx="15" fill="#0a0b12" stroke="#222a3c" stroke-width="1.5"/>
  <circle cx="32" cy="32" r="22" fill="url(#glow)"/>

  <g stroke="url(#lit)" stroke-width="3.4" stroke-linecap="round">
    <line x1="32" y1="10" x2="32" y2="17"/>
    <line x1="40.4" y1="11.7" x2="37.7" y2="18.1"/>
    <line x1="47.6" y1="16.4" x2="42.6" y2="21.4"/>
    <line x1="52.3" y1="23.6" x2="45.9" y2="26.3"/>
    <line x1="54" y1="32" x2="47" y2="32"/>
    <line x1="52.3" y1="40.4" x2="45.9" y2="37.7"/>
    <line x1="47.6" y1="47.6" x2="42.6" y2="42.6"/>
    <line x1="40.4" y1="52.3" x2="37.7" y2="45.9"/>
    <line x1="32" y1="54" x2="32" y2="47"/>
    <line x1="23.6" y1="52.3" x2="26.3" y2="45.9"/>
    <line x1="16.4" y1="47.6" x2="21.4" y2="42.6"/>
    <line x1="11.7" y1="40.4" x2="18.1" y2="37.7"/>
  </g>
  <g stroke="#2c364b" stroke-width="3" stroke-linecap="round">
    <line x1="10" y1="32" x2="17" y2="32"/>
    <line x1="11.7" y1="23.6" x2="18.1" y2="26.3"/>
    <line x1="16.4" y1="16.4" x2="21.4" y2="21.4"/>
    <line x1="23.6" y1="11.7" x2="26.3" y2="18.1"/>
  </g>

  <circle cx="32" cy="32" r="8" fill="url(#glow)"/>
  <circle cx="32" cy="32" r="4.4" fill="url(#core)"/>
</svg>
